<?xml version="1.0" encoding="UTF-8" ?>
<svg version="1.1" width="256" height="256" xmlns="http://www.w3.org/2000/svg" shape-rendering="crispEdges">
<rect x="32" y="40" width="192" height="8" fill="#D88F45" />
<rect x="32" y="48" width="8" height="16" fill="#D88F45" />
<rect x="40" y="48" width="176" height="16" fill="#D9A066" />
<rect x="216" y="48" width="8" height="16" fill="#D88F45" />
<rect x="32" y="64" width="8" height="16" fill="#D29150" />
<rect x="40" y="64" width="176" height="16" fill="#D29B63" />
<rect x="216" y="64" width="8" height="16" fill="#D29150" />
<rect x="40" y="80" width="8" height="8" fill="#C88D4F" />
<rect x="48" y="80" width="160" height="8" fill="#C8945F" />
<rect x="208" y="80" width="8" height="8" fill="#C88D4F" />
<rect x="48" y="88" width="160" height="8" fill="#C88D4F" />
<rect x="48" y="96" width="8" height="16" fill="#A77441" />
<rect x="56" y="96" width="64" height="16" fill="#A77C4F" />
<rect x="120" y="96" width="16" height="16" fill="#A77441" />
<rect x="136" y="96" width="64" height="16" fill="#A77C4F" />
<rect x="200" y="96" width="8" height="16" fill="#A77441" />
<rect x="48" y="112" width="8" height="8" fill="#D29150" />
<rect x="56" y="112" width="64" height="8" fill="#B58656" />
<rect x="120" y="112" width="16" height="16" fill="#B5814D" />
<rect x="136" y="112" width="56" height="8" fill="#B58656" />
<rect x="192" y="112" width="8" height="16" fill="#D29B63" />
<rect x="200" y="112" width="8" height="8" fill="#D29150" />
<rect x="48" y="120" width="8" height="64" fill="#D88F45" />
<rect x="56" y="120" width="16" height="8" fill="#D29B63" />
<rect x="72" y="120" width="48" height="8" fill="#B58656" />
<rect x="136" y="120" width="48" height="8" fill="#B58656" />
<rect x="184" y="120" width="8" height="16" fill="#D29B63" />
<rect x="200" y="120" width="8" height="64" fill="#D88F45" />
<rect x="56" y="128" width="8" height="56" fill="#D9A066" />
<rect x="64" y="128" width="56" height="8" fill="#D29B63" />
<rect x="120" y="128" width="16" height="8" fill="#D29150" />
<rect x="136" y="128" width="48" height="8" fill="#D29B63" />
<rect x="192" y="128" width="8" height="56" fill="#D9A066" />
<rect x="64" y="136" width="56" height="48" fill="#D9A066" />
<rect x="120" y="136" width="16" height="48" fill="#D88F45" />
<rect x="136" y="136" width="56" height="48" fill="#D9A066" />
<rect x="48" y="184" width="8" height="8" fill="#D29150" />
<rect x="56" y="184" width="64" height="8" fill="#D29B63" />
<rect x="120" y="184" width="16" height="16" fill="#D29150" />
<rect x="136" y="184" width="64" height="8" fill="#D29B63" />
<rect x="200" y="184" width="8" height="32" fill="#C88D4F" />
<rect x="48" y="192" width="8" height="8" fill="#C88F56" />
<rect x="56" y="192" width="8" height="16" fill="#C8945F" />
<rect x="64" y="192" width="56" height="8" fill="#D29B63" />
<rect x="136" y="192" width="56" height="8" fill="#D29B63" />
<rect x="192" y="192" width="8" height="16" fill="#C8945F" />
<rect x="48" y="200" width="8" height="16" fill="#C88D4F" />
<rect x="64" y="200" width="56" height="8" fill="#C8945F" />
<rect x="120" y="200" width="16" height="16" fill="#C88D4F" />
<rect x="136" y="200" width="56" height="8" fill="#C8945F" />
<rect x="56" y="208" width="64" height="8" fill="#C88D4F" />
<rect x="136" y="208" width="64" height="8" fill="#C88D4F" />
</svg>